# xmcd CD database file
#
# Track frame offsets:
#	150
#	16925
#	28187
#	45600
#	65172
#	83035
#	95705
#	109475
#	122120
#	140225
#	157422
#	176042
#	195250
#
# Disc length: 2946 seconds
#
# Revision: 0
# Processed by: cddbd v1.5.1PL0 Copyright (c) Steve Scherf et al.
# Submitted via: CDex 1.51
#
DISCID=c10b800d
DTITLE=村上ゆき - While my piano gently weeps
DYEAR=2005
DGENRE=Jazz
TTITLE0=Tell me a bedtime story
TTITLE1=The 59th street bridge song
TTITLE2=I loves you porgy
TTITLE3=Bang Bang
TTITLE4=As tears go by
TTITLE5=Light my fire
TTITLE6=He was beautiful
TTITLE7=Will you love me tomorrow
TTITLE8=Girl talk
TTITLE9=The days of wine and roses
TTITLE10=Too shy to say
TTITLE11=I can see clearly now
TTITLE12=Bridges
EXTD=YEAR: 2005
EXTT0=
EXTT1=
EXTT2=
EXTT3=
EXTT4=
EXTT5=
EXTT6=
EXTT7=
EXTT8=
EXTT9=
EXTT10=
EXTT11=
EXTT12=
PLAYORDER=
